<?xml version="1.0" encoding="UTF-8"?>
<svg width="14px" height="14px" viewBox="0 0 14 14" version="1.1" xmlns="http://www.w3.org/2000/svg" xmlns:xlink="http://www.w3.org/1999/xlink">
    <!-- Generator: Sketch 51.3 (57544) - http://www.bohemiancoding.com/sketch -->
    <title>Page 1</title>
    <desc>Created with Sketch.</desc>
    <defs>
        <polygon id="path-1" points="0 0 14 0 14 14 0 14"></polygon>
    </defs>
    <g id="Page-1" stroke="none" stroke-width="1" fill="none" fill-rule="evenodd">
        <g id="01.2_MLC_Inline-error" transform="translate(-22.000000, -396.000000)">
            <g id="Group-6" transform="translate(17.000000, 392.000000)">
                <g id="Group-3">
                    <g id="Page-1" transform="translate(5.000000, 4.000000)">
                        <mask id="mask-2" fill="white">
                            <use xlink:href="#path-1"></use>
                        </mask>
                        <g id="Clip-2"></g>
                        <path d="M10.5005578,1.69976359 C9.40956175,2.44089835 8.36318725,3.30496454 7.47466135,4.33806147 C6.57219124,5.35992908 5.83258964,6.54078014 5.24525896,7.79432624 C4.98589641,8.36702128 4.75051793,8.95271868 4.54191235,9.54787234 C4.22231076,9.09810875 3.82908367,8.69799054 3.41521912,8.32446809 C3.16812749,8.12174941 2.91155378,7.928487 2.64549801,7.75295508 C2.3710757,7.58687943 2.09330677,7.43439716 1.80326693,7.31146572 C1.22095618,7.07269504 0.615219124,6.93439716 0,6.9391253 C0.993386454,7.52364066 1.83450199,8.31501182 2.47370518,9.24763593 C3.11904382,10.179078 3.60039841,11.2192671 4.0114741,12.2943262 L4.68749004,14 L5.40143426,12.1164303 L5.40143426,12.1152482 C5.84486056,10.9219858 6.30557769,9.7535461 6.84996016,8.62706856 C7.40326693,7.51122931 7.91976096,6.37411348 8.57960159,5.28723404 C9.24278884,4.20803783 10.043745,3.21513002 10.9534661,2.32210402 C11.8643028,1.42966903 12.8861355,0.645390071 14,0 C13.3914741,0.196808511 12.783506,0.427895981 12.1972908,0.709810875 C11.6166534,1.00059102 11.0494024,1.33156028 10.5005578,1.69976359" id="Fill-1" fill="#0F748F" mask="url(#mask-2)"></path>
                    </g>
                </g>
            </g>
        </g>
    </g>
</svg>